<svg xmlns="http://www.w3.org/2000/svg" viewBox="0 0 735 920" width="735" height="920">
<polygon points="474.5,910.8 440.3,918.7 433.7,918.7 452.1,918.7 453.4,917.4 454.7,918.7 474.5,918.7" fill="#0a0a0a"/>
<polygon points="178.7,908.2 178.7,909.5 181.4,909.5 186.6,913.4 186.6,918.7 207.7,918.7 207.7,917.4 187.9,913.4 186.6,909.5" fill="#0a0a0a"/>
<polygon points="331.2,791.2 328.6,791.2 325.9,799.1 311.5,818.8 319.4,816.2 329.9,809.6 332.5,810.9 335.1,808.3 339.1,808.3" fill="#0a0a0a"/>
<polygon points="584.9,751.8 575.7,751.8 571.7,749.1 569.1,749.1 567.8,751.8 563.8,751.8 563.8,758.3 566.5,762.3 565.1,763.6 562.5,762.3 546.7,782.0 537.5,788.6 537.5,791.2 534.9,793.8 534.9,797.8 529.7,803.0 531.0,808.3 525.7,813.5 527.0,816.2 524.4,818.8 524.4,821.4 528.3,821.4 527.0,817.5 536.2,808.3 537.5,804.3 534.9,800.4 536.2,799.1 538.9,799.1 546.7,804.3 554.6,800.4 557.3,796.5 557.3,787.3 561.2,775.4 567.8,767.5 574.3,766.2 575.7,767.5 569.1,771.5 569.1,775.4 565.1,780.7 563.8,795.1 565.1,796.5 565.1,808.3 573.0,818.8 578.3,820.1 579.6,822.7 578.3,824.1 571.7,822.7 574.3,828.0 565.1,831.9 562.5,835.9 559.9,835.9 558.6,834.6 558.6,828.0 559.9,826.7 563.8,828.0 561.2,825.4 565.1,822.7 565.1,816.2 558.6,816.2 550.7,826.7 552.0,834.6 554.6,835.9 553.3,841.1 557.3,845.1 562.5,845.1 570.4,838.5 580.9,834.6 580.9,831.9 584.9,828.0 584.9,824.1 587.5,818.8 587.5,804.3 584.9,793.8 584.9,776.7 586.2,774.1 583.5,768.9 587.5,767.5 583.5,755.7" fill="#0a0a0a"/>
<polygon points="72.3,749.1 68.3,761.0 68.3,766.2 71.0,767.5 68.3,778.1 69.7,788.6 67.0,796.5 65.7,816.2 68.3,818.8 67.0,821.4 69.7,826.7 69.7,830.6 72.3,833.3 80.2,834.6 81.5,831.9 82.8,837.2 88.1,842.5 93.3,842.5 99.9,835.9 99.9,820.1 93.3,814.9 86.7,816.2 85.4,822.7 88.1,821.4 93.3,826.7 90.7,834.6 84.1,828.0 77.5,825.4 80.2,820.1 76.2,821.4 71.0,820.1 78.9,817.5 84.1,812.2 89.4,800.4 90.7,791.2 86.7,779.4 89.4,776.7 89.4,774.1 86.7,770.2 88.1,768.9 94.6,778.1 95.9,789.9 98.6,795.1 97.3,797.8 102.5,804.3 117.0,796.5 118.3,800.4 115.7,805.7 120.9,809.6 123.5,816.2 124.9,816.2 126.2,810.9 122.2,807.0 123.5,797.8 120.9,795.1 118.3,797.8 117.0,796.5 117.0,791.2 101.2,774.1 97.3,766.2 88.1,761.0 90.7,758.3 90.7,753.1 86.7,751.8 84.1,755.7 81.5,749.1 74.9,750.5" fill="#0a0a0a"/>
<polygon points="463.9,742.6 462.6,747.8 463.9,753.1 466.6,755.7 467.9,768.9 470.5,771.5 470.5,792.5 475.8,800.4 481.0,814.9 483.7,816.2 485.0,824.1 492.9,841.1 495.5,842.5 495.5,847.7 498.1,850.3 499.4,847.7 496.8,837.2 492.9,830.6 492.9,825.4 490.2,820.1 487.6,805.7 483.7,796.5 482.3,783.3 478.4,779.4 477.1,758.3 475.8,754.4 474.5,754.4 473.1,758.3 466.6,742.6" fill="#0a0a0a"/>
<polygon points="198.5,722.9 194.5,728.1 194.5,732.1 190.6,738.6 189.3,746.5 184.0,757.0 184.0,761.0 182.7,762.3 180.1,761.0 181.4,751.8 180.1,751.8 177.4,758.3 176.1,768.9 177.4,768.9 178.7,762.3 180.1,763.6 180.1,772.8 174.8,785.9 172.2,797.8 168.2,803.0 165.6,821.4 163.0,826.7 163.0,833.3 160.3,839.8 164.3,839.8 164.3,837.2 166.9,834.6 174.8,816.2 174.8,812.2 177.4,810.9 176.1,807.0 181.4,801.7 181.4,797.8 186.6,787.3 185.3,778.1 190.6,762.3 190.6,755.7 194.5,749.1 194.5,739.9 197.1,736.0" fill="#0a0a0a"/>
<polygon points="224.7,691.3 206.3,724.2 205.0,767.5 224.7,807.0 260.2,834.6 223.4,817.5 201.1,787.3 193.2,821.4 209.0,866.1 186.6,807.0 170.9,860.9 178.7,850.3 186.6,904.2 278.6,918.7 312.8,841.1 304.9,880.6 285.2,918.7 293.1,917.4 320.7,860.9 325.9,829.3 294.4,841.1 298.3,834.6 252.3,826.7 282.6,824.1 315.4,800.4 329.9,733.4 332.5,774.1 347.0,804.3 369.3,821.4 402.2,828.0 361.4,831.9 347.0,825.4 366.7,846.4 335.1,828.0 344.3,874.0 374.6,918.7 348.3,845.1 383.8,918.7 471.8,906.9 475.8,849.0 462.6,884.5 446.9,899.0 474.5,833.3 486.3,860.9 473.1,813.5 450.8,859.5 461.3,822.7 461.3,770.2 433.7,818.8 393.0,835.9 432.4,809.6 450.8,776.7 450.8,721.5 429.8,687.4 410.1,675.5 324.6,686.1 256.3,674.2" fill="#0a0a0a"/>
<polygon points="226.1,661.1 231.3,661.1 235.3,657.1 239.2,661.1 231.3,667.7 231.3,670.3 239.2,670.3 243.1,667.7 262.9,667.7 268.1,670.3 278.6,671.6 282.6,667.7 291.8,671.6 293.1,675.5 310.2,674.2 315.4,675.5 319.4,679.5 322.0,678.2 325.9,680.8 344.3,678.2 345.7,675.5 348.3,676.9 353.5,676.9 358.8,674.2 368.0,675.5 375.9,671.6 378.5,672.9 385.1,670.3 394.3,670.3 398.2,667.7 411.4,667.7 417.9,670.3 433.7,669.0 433.7,667.7 428.5,667.7 423.2,662.4 424.5,661.1 432.4,662.4 432.4,658.5 424.5,638.7 416.6,636.1 399.5,636.1 381.1,641.4 356.2,655.8 339.1,670.3 337.8,667.7 347.0,658.5 332.5,661.1 314.1,658.5 318.1,663.7 315.4,666.3 303.6,655.8 289.1,646.6 266.8,637.4 252.3,634.8 236.6,637.4 233.9,640.1 235.3,645.3 231.3,646.6" fill="#0a0a0a"/>
<polygon points="128.8,575.7 122.2,575.7 99.9,599.3 97.3,595.4 90.7,611.1 86.7,609.8 74.9,646.6 74.9,625.6 78.9,609.8 74.9,603.3 80.2,601.9 78.9,592.7 76.2,601.9 73.6,603.3 76.2,605.9 74.9,623.0 67.0,647.9 61.8,678.2 63.1,683.4 68.3,662.4 76.2,650.6 77.5,655.8 71.0,716.3 73.6,743.9 80.2,742.6 88.1,705.8 97.3,684.7 98.6,688.7 89.4,718.9 99.9,693.9 122.2,657.1 120.9,655.8 105.1,671.6 103.8,670.3 113.0,645.3 117.0,646.6 119.6,626.9 123.5,616.4 127.5,616.4 128.8,607.2 124.9,607.2 114.3,619.0 97.3,650.6 95.9,646.6 126.2,587.5" fill="#0a0a0a"/>
<polygon points="563.8,558.6 554.6,563.8 542.8,562.5 541.5,567.8 542.8,579.6 546.7,584.9 554.6,588.8 562.5,587.5 566.5,578.3" fill="#0a0a0a"/>
<polygon points="95.9,558.6 92.0,569.1 92.0,574.3 94.6,580.9 93.3,584.9 95.9,584.9 97.3,582.2 101.2,587.5 109.1,586.2 117.0,577.0 115.7,574.3 117.0,565.1 110.4,565.1 109.1,562.5 103.8,562.5 98.6,558.6" fill="#0a0a0a"/>
<polygon points="134.1,557.3 130.1,557.3 123.5,563.8 123.5,569.1 126.2,569.1 128.8,573.0 130.1,573.0" fill="#0a0a0a"/>
<polygon points="524.4,555.9 533.6,583.5 533.6,594.1 555.9,632.2 562.5,649.3 561.2,653.2 545.4,621.7 529.7,603.3 541.5,647.9 545.4,646.6 558.6,676.9 548.1,670.3 536.2,654.5 534.9,655.8 563.8,709.7 559.9,690.0 562.5,690.0 573.0,728.1 574.3,743.9 582.2,745.2 583.5,658.5 584.9,663.7 590.1,666.3 592.7,684.7 595.4,684.7 592.7,659.8 588.8,658.5 587.5,637.4 582.2,617.7 582.2,608.5 586.2,608.5 580.9,586.2 577.0,584.9 583.5,626.9 582.2,649.3 578.3,630.9 574.3,626.9 566.5,600.6 563.8,605.9 555.9,592.7 540.2,587.5 536.2,566.5" fill="#0a0a0a"/>
<polygon points="81.5,555.9 78.9,555.9 67.0,582.2 71.0,579.6 71.0,574.3 76.2,573.0 81.5,565.1 82.8,566.5 81.5,574.3 84.1,573.0 84.1,565.1 81.5,563.8 82.8,561.2" fill="#0a0a0a"/>
<polygon points="577.0,550.7 577.0,555.9 574.3,561.2 574.3,571.7 577.0,571.7 575.7,569.1 577.0,566.5 586.2,577.0 587.5,580.9 590.1,582.2 588.8,573.0 584.9,570.4 586.2,567.8 587.5,569.1 588.8,567.8 582.2,562.5 578.3,554.6 578.3,550.7" fill="#0a0a0a"/>
<polygon points="520.5,445.5 523.1,452.1 529.7,457.4 527.0,460.0 531.0,458.7 533.6,462.6 537.5,462.6 538.9,465.3 550.7,473.1 550.7,470.5 541.5,460.0" fill="#0a0a0a"/>
<polygon points="140.6,442.9 127.5,454.7 120.9,457.4 113.0,465.3 109.1,471.8 111.7,471.8 120.9,462.6 131.4,460.0" fill="#0a0a0a"/>
<polygon points="490.2,436.3 490.2,452.1 491.5,453.4 492.9,473.1 498.1,490.2 502.1,496.8 502.1,503.4 506.0,511.3 515.2,521.8 513.9,525.7 523.1,538.9 523.1,544.1 534.9,558.6 537.5,557.3 534.9,549.4 527.0,541.5 525.7,536.2 523.1,533.6 523.1,527.0 520.5,519.1 520.5,512.6 521.8,511.3 529.7,538.9 531.0,538.9 531.0,527.0 523.1,503.4 521.8,491.5 520.5,491.5 520.5,506.0 521.8,508.6 519.1,509.9 500.7,474.5 498.1,462.6 495.5,461.3 496.8,457.4 494.2,456.1 495.5,453.4 494.2,440.3" fill="#0a0a0a"/>
<polygon points="507.3,382.5 504.7,382.5 494.2,389.0 487.6,386.4 485.0,390.3 483.7,403.5 487.6,406.1 487.6,408.7 491.5,410.1 486.3,412.7 487.6,433.7 492.9,433.7 491.5,431.1 494.2,425.8 492.9,407.4 503.4,396.9 504.7,387.7" fill="#0a0a0a"/>
<polygon points="153.8,382.5 153.8,386.4 156.4,390.3 156.4,395.6 161.7,393.0 165.6,394.3 157.7,399.5 160.3,406.1 161.7,416.6 166.9,417.9 164.3,423.2 164.3,452.1 157.7,473.1 147.2,491.5 145.9,496.8 136.7,509.9 135.4,508.6 136.7,491.5 135.4,491.5 127.5,524.4 134.1,520.5 134.1,517.8 138.0,512.6 139.3,517.8 132.7,534.9 131.4,546.7 140.6,536.2 139.3,532.3 144.6,525.7 143.3,523.1 155.1,504.7 153.8,502.1 160.3,490.2 165.6,470.5 168.2,439.0 172.2,437.7 172.2,428.5 169.5,425.8 172.2,424.5 173.5,408.7 170.9,410.1 169.5,406.1 170.9,404.8 173.5,406.1 172.2,399.5 174.8,398.2 177.4,400.9 176.1,393.0 174.8,393.0 173.5,396.9 170.9,393.0 166.9,391.7 169.5,389.0 160.3,386.4" fill="#0a0a0a"/>
<polygon points="542.8,378.5 541.5,383.8 538.9,385.1 540.2,387.7 540.2,400.9 541.5,404.8 545.4,406.1 546.7,403.5 546.7,390.3 545.4,389.0 545.4,379.8" fill="#0a0a0a"/>
<polygon points="118.3,370.6 115.7,370.6 113.0,382.5 113.0,395.6 110.4,399.5 111.7,404.8 115.7,404.8 115.7,402.2 118.3,399.5 118.3,394.3 120.9,390.3 118.3,383.8 115.7,382.5" fill="#0a0a0a"/>
<polygon points="450.8,298.3 446.9,307.5 437.7,311.5 437.7,314.1 442.9,319.4 442.9,324.6 445.5,329.9 457.4,345.7 474.5,361.4 477.1,360.1 513.9,377.2 521.8,382.5 534.9,395.6 537.5,389.0 533.6,385.1 533.6,381.1 527.0,364.1 525.7,364.1 528.3,373.3 527.0,375.9 520.5,366.7 498.1,344.3 498.1,341.7 495.5,339.1 490.2,337.8 474.5,322.0 463.9,304.9 458.7,302.3 460.0,299.7 458.7,295.7" fill="#0a0a0a"/>
<polygon points="224.7,308.9 216.9,310.2 218.2,312.8 216.9,314.1 210.3,312.8 209.0,311.5 212.9,308.9 214.2,302.3 212.9,298.3 205.0,295.7 202.4,298.3 203.7,301.0 201.1,303.6 198.5,303.6 197.1,307.5 193.2,311.5 191.9,316.7 187.9,318.1 187.9,320.7 155.1,348.3 145.9,357.5 132.7,375.9 131.4,369.3 130.1,369.3 126.2,377.2 124.9,389.0 122.2,394.3 127.5,394.3 130.1,390.3 130.1,386.4 132.7,383.8 136.7,385.1 145.9,377.2 156.4,371.9 165.6,369.3 185.3,358.8 187.9,360.1 202.4,345.7 207.7,343.0 210.3,336.5 209.0,331.2 210.3,327.3 207.7,327.3 206.3,324.6 211.6,323.3 212.9,320.7 214.2,324.6 222.1,325.9 222.1,319.4 219.5,314.1 224.7,312.8" fill="#0a0a0a"/>
<polygon points="396.9,260.2 396.9,268.1 393.0,274.7 410.1,277.3 411.4,279.9 415.3,279.9 424.5,283.9 428.5,282.6 432.4,285.2 436.3,283.9 441.6,286.5 442.9,289.1 452.1,289.1 452.1,287.8 445.5,286.5 440.3,279.9 435.0,281.3 429.8,279.9 407.4,268.1 400.9,261.5" fill="#0a0a0a"/>
<polygon points="277.3,253.7 252.3,266.8 236.6,278.6 227.4,282.6 223.4,281.3 222.1,285.2 230.0,286.5 247.1,279.9 257.6,278.6 264.2,273.4 266.8,273.4 266.8,269.4 262.9,266.8" fill="#0a0a0a"/>
<polygon points="301.0,35.5 303.6,38.1 302.3,40.7 306.2,42.1 306.2,46.0 323.3,40.7 323.3,39.4 315.4,38.1 312.8,35.5 306.2,36.8" fill="#0a0a0a"/>
<polygon points="333.8,30.2 329.9,39.4 337.8,39.4 327.3,43.4 336.5,49.9 285.2,49.9 272.1,78.9 272.1,119.6 266.8,103.8 291.8,199.8 295.7,185.3 310.2,180.1 314.1,189.3 301.0,255.0 287.8,268.1 298.3,270.7 286.5,278.6 310.2,336.5 323.3,410.1 322.0,508.6 301.0,574.3 312.8,625.6 293.1,608.5 272.1,623.0 240.5,558.6 251.0,605.9 241.8,594.1 236.6,616.4 294.4,641.4 291.8,629.5 302.3,647.9 324.6,654.5 328.6,329.9 318.1,273.4 329.9,302.3 347.0,273.4 333.8,323.3 331.2,653.2 349.6,653.2 371.9,625.6 366.7,640.1 399.5,626.9 416.6,630.9 406.1,617.7 423.2,619.0 417.9,594.1 410.1,605.9 424.5,557.3 411.4,566.5 389.0,623.0 377.2,607.2 349.6,624.3 360.1,574.3 339.1,498.1 337.8,425.8 350.9,343.0 379.8,281.3 365.4,270.7 374.6,269.4 362.7,257.6 370.6,240.5 358.8,235.3 349.6,180.1 371.9,180.1 395.6,115.7 390.3,81.5 375.9,64.4 383.8,57.8 358.8,51.3 364.1,34.2 353.5,47.3" fill="#0a0a0a"/>
<polygon points="435.0,323.3 423.2,333.8 415.3,350.9 412.7,369.3 415.3,368.0 416.6,371.9 414.0,374.6 414.0,382.5 417.9,389.0 427.1,396.9 431.1,398.2 449.5,398.2 458.7,395.6 470.5,387.7 481.0,377.2 482.3,373.3 479.7,369.3 461.3,356.2 450.8,344.3 445.5,343.0 445.5,337.8 437.7,324.6" fill="#fcba0e"/>
<polygon points="390.3,276.0 381.1,282.6 364.1,319.4 344.3,412.7 344.3,471.8 350.9,527.0 368.0,583.5 386.4,613.8 414.0,538.9 396.9,552.0 386.4,569.1 387.7,557.3 419.3,499.4 421.9,502.1 414.0,521.8 442.9,494.2 457.4,461.3 444.2,469.2 462.6,436.3 461.3,432.4 445.5,448.2 421.9,462.6 450.8,433.7 461.3,414.0 433.7,416.6 400.9,399.5 370.6,445.5 360.1,507.3 364.1,452.1 429.8,311.5 420.6,312.8 452.1,294.4 427.1,291.8 427.1,287.8" fill="#fcba0e"/>
<polygon points="277.3,274.7 233.9,287.8 233.9,291.8 210.3,291.8 230.0,304.9 227.4,307.5 236.6,315.4 248.4,345.7 237.9,329.9 226.1,323.3 214.2,341.7 177.4,371.9 202.4,395.6 232.6,398.2 248.4,385.1 249.7,348.3 264.2,385.1 291.8,432.4 302.3,470.5 301.0,511.3 299.7,477.1 291.8,444.2 262.9,399.5 256.3,398.2 227.4,416.6 198.5,412.7 206.3,431.1 236.6,460.0 197.1,433.7 214.2,466.6 202.4,460.0 211.6,486.3 245.8,523.1 240.5,498.1 274.7,562.5 273.4,566.5 248.4,538.9 272.1,615.1 295.7,577.0 307.5,538.9 319.4,432.4 308.9,352.2 295.7,308.9" fill="#fcba0e"/>
<polygon points="311.5,885.8 310.2,885.8 304.9,899.0 297.0,910.8 294.4,918.7 297.0,918.7 301.0,912.1 304.9,900.3 311.5,889.8" fill="#161615"/>
<polygon points="177.4,855.6 176.1,874.0 173.5,875.3 174.8,884.5 178.7,887.1 182.7,867.4 180.1,864.8 178.7,855.6" fill="#161615"/>
<polygon points="471.8,845.1 470.5,845.1 467.9,853.0 463.9,854.3 454.7,877.9 454.7,880.6 457.4,883.2 452.1,893.7 457.4,889.8 457.4,884.5 460.0,881.9 466.6,866.1" fill="#161615"/>
<polygon points="473.1,838.5 478.4,854.3 478.4,864.8 479.7,866.1 479.7,887.1 477.1,899.0 473.1,904.2 474.5,905.5 483.7,902.9 487.6,899.0 487.6,893.7 483.7,896.3 482.3,891.1 488.9,889.8 488.9,880.6 483.7,879.3 483.7,872.7 486.3,870.1 487.6,871.4 488.9,870.1 486.3,867.4 485.0,862.2 481.0,860.9 477.1,841.1" fill="#161615"/>
<polygon points="561.2,761.0 548.1,771.5 549.4,774.1 544.1,779.4 546.7,779.4 561.2,763.6" fill="#161615"/>
<polygon points="591.4,749.1 586.2,749.1 586.2,761.0 588.8,766.2 586.2,768.9 587.5,774.1 586.2,776.7 587.5,803.0 588.8,803.0 590.1,799.1 590.1,768.9 592.7,755.7" fill="#161615"/>
<polygon points="61.8,747.8 60.5,754.4 64.4,767.5 61.8,779.4 65.7,785.9 68.3,785.9 65.7,771.5 68.3,770.2 68.3,767.5 65.7,764.9 71.0,749.1" fill="#161615"/>
<polygon points="583.5,665.0 584.9,736.0 590.1,738.6 588.8,678.2 586.2,671.6 588.8,669.0 588.8,666.3 587.5,666.3 586.2,670.3 584.9,665.0" fill="#161615"/>
<polygon points="544.1,649.3 540.2,653.2 541.5,657.1 545.4,661.1 544.1,663.7 548.1,669.0 550.7,669.0 555.9,674.2 546.7,651.9" fill="#161615"/>
<polygon points="71.0,608.5 69.7,608.5 68.3,619.0 71.0,620.3 67.0,625.6 64.4,651.9 65.7,651.9 69.7,632.2 73.6,623.0 74.9,609.8 72.3,612.5" fill="#161615"/>
<polygon points="523.1,596.7 524.4,601.9 527.0,603.3 528.3,617.7 533.6,624.3 532.3,630.9 534.9,633.5 536.2,641.4 538.9,642.7 533.6,619.0 528.3,608.5 527.0,598.0" fill="#161615"/>
<polygon points="134.1,596.7 132.7,596.7 131.4,605.9 128.8,609.8 127.5,620.3 124.9,623.0 122.2,623.0 118.3,646.6 115.7,650.6 113.0,650.6 105.1,669.0 109.1,665.0 111.7,665.0 127.5,646.6 127.5,644.0 124.9,646.6 122.2,640.1 126.2,632.2 130.1,612.5 134.1,604.6" fill="#161615"/>
<polygon points="558.6,592.7 562.5,601.9 563.8,601.9 562.5,599.3 563.8,596.7 567.8,600.6 573.0,613.8 574.3,621.7 577.0,623.0 577.0,616.4 571.7,603.3 569.1,591.4 565.1,590.1" fill="#161615"/>
<polygon points="582.2,587.5 583.5,599.3 587.5,608.5 586.2,615.1 584.9,611.1 583.5,611.1 583.5,617.7 588.8,637.4 590.1,658.5 594.1,658.5 592.7,632.2 588.8,615.1 588.8,605.9 586.2,600.6 584.9,590.1" fill="#161615"/>
<polygon points="92.0,587.5 90.7,587.5 92.0,592.7 84.1,611.1 89.4,604.6 92.0,605.9 92.0,603.3 95.9,598.0 97.3,592.7 94.6,592.7" fill="#161615"/>
<polygon points="591.4,579.6 598.0,600.6 599.3,600.6 599.3,588.8 596.7,580.9" fill="#161615"/>
<polygon points="361.4,579.6 358.8,579.6 357.5,599.3 350.9,623.0 368.0,607.2 371.9,607.2 377.2,612.5 377.2,609.8 370.6,600.6" fill="#161615"/>
<polygon points="299.7,579.6 287.8,603.3 290.5,607.2 299.7,611.1 310.2,621.7 308.9,615.1 306.2,611.1 304.9,600.6 302.3,594.1 301.0,579.6" fill="#161615"/>
<polygon points="136.7,557.3 134.1,559.9 132.7,569.1 127.5,582.2 127.5,587.5 122.2,594.1 117.0,607.2 119.6,605.9 130.1,586.2 130.1,582.2 134.1,574.3" fill="#161615"/>
<polygon points="520.5,554.6 523.1,567.8 528.3,578.3 528.3,586.2 531.0,588.8 532.3,583.5 524.4,563.8 524.4,558.6" fill="#161615"/>
<polygon points="82.8,548.1 80.2,548.1 72.3,557.3 72.3,565.1 65.7,573.0 57.8,598.0 61.8,596.7 67.0,577.0" fill="#161615"/>
<polygon points="494.2,487.6 496.8,495.5 495.5,498.1 502.1,507.3 503.4,515.2 508.6,520.5 509.9,516.5 504.7,511.3 500.7,503.4 500.7,496.8 496.8,487.6" fill="#161615"/>
<polygon points="485.0,417.9 485.0,424.5 483.7,425.8 485.0,452.1 487.6,457.4 488.9,474.5 490.2,477.1 492.9,477.1 490.2,465.3 490.2,453.4 488.9,452.1 488.9,436.3 486.3,435.0 485.0,428.5 486.3,427.1 486.3,417.9" fill="#161615"/>
<polygon points="174.8,414.0 173.5,414.0 173.5,437.7 169.5,441.6 166.9,470.5 160.3,491.5 161.7,494.2 156.4,499.4 156.4,504.7 153.8,509.9 159.0,504.7 163.0,496.8 161.7,492.9 166.9,482.3 172.2,463.9 173.5,450.8 174.8,449.5 174.8,436.3 176.1,435.0" fill="#161615"/>
<polygon points="507.3,385.1 499.4,411.4 495.5,444.2 498.1,445.5 498.1,453.4 506.0,477.1 515.2,491.5 512.6,494.2 512.6,496.8 517.8,502.1 519.1,502.1 519.1,491.5 521.8,488.9 523.1,490.2 524.4,503.4 532.3,527.0 533.6,544.1 537.5,554.6 540.2,554.6 544.1,549.4 550.7,548.1 546.7,542.8 549.4,540.2 549.4,534.9 541.5,509.9 542.8,508.6 552.0,520.5 554.6,520.5 553.3,507.3 546.7,495.5 546.7,491.5 537.5,475.8 536.2,467.9 531.0,461.3 525.7,460.0 525.7,457.4 517.8,442.9 519.1,441.6 523.1,446.9 534.9,453.4 545.4,462.6 546.7,461.3 532.3,450.8 527.0,442.9 531.0,433.7 529.7,423.2 527.0,421.9 524.4,411.4 520.5,404.8 521.8,400.9 515.2,391.7" fill="#161615"/>
<polygon points="152.5,385.1 151.1,385.1 149.8,389.0 147.2,389.0 138.0,402.2 138.0,406.1 134.1,412.7 127.5,435.0 128.8,445.5 120.9,456.1 127.5,453.4 141.9,437.7 143.3,439.0 141.9,444.2 132.7,460.0 127.5,461.3 126.2,467.9 119.6,477.1 107.8,502.1 105.1,504.7 105.1,509.9 102.5,516.5 102.5,523.1 103.8,523.1 117.0,504.7 118.3,506.0 113.0,517.8 113.0,524.4 110.4,534.9 113.0,536.2 111.7,538.9 113.0,541.5 109.1,546.7 119.6,554.6 122.2,552.0 124.9,541.5 124.9,527.0 130.1,511.3 134.1,491.5 136.7,488.9 138.0,490.2 138.0,503.4 136.7,504.7 136.7,507.3 138.0,507.3 140.6,503.4 139.3,495.5 147.2,478.4 151.1,475.8 159.0,458.7 160.3,449.5 163.0,448.2 163.0,424.5 155.1,395.6 155.1,390.3" fill="#161615"/>
<polygon points="500.7,344.3 524.4,370.6 525.7,370.6 524.4,362.7 525.7,361.4 528.3,364.1 534.9,381.1 534.9,385.1 537.5,387.7 532.3,364.1 529.7,358.8 521.8,352.2 519.1,345.7 517.8,347.0 523.1,356.2 521.8,360.1 512.6,349.6 503.4,344.3" fill="#161615"/>
<polygon points="157.7,344.3 143.3,353.5 136.7,361.4 131.4,356.2 130.1,362.7 123.5,377.2 123.5,381.1 124.9,381.1 124.9,377.2 128.8,369.3 131.4,366.7 132.7,371.9 134.1,371.9 144.6,357.5" fill="#161615"/>
<polygon points="523.1,316.7 523.1,319.4 532.3,332.5 534.9,343.0 541.5,357.5 541.5,362.7 546.7,379.8 548.1,396.9 549.4,396.9 550.7,379.8 548.1,378.5 546.7,358.8 542.8,348.3 544.1,345.7 534.9,328.6" fill="#161615"/>
<polygon points="136.7,311.5 127.5,318.1 130.1,322.0 122.2,331.2 114.3,344.3 114.3,347.0 117.0,349.6 110.4,369.3 110.4,385.1 107.8,386.4 109.1,396.9 111.7,395.6 113.0,375.9 118.3,357.5 122.2,349.6 123.5,341.7 134.1,322.0 140.6,315.4" fill="#161615"/>
<polygon points="462.6,298.3 462.6,301.0 469.2,311.5 477.1,314.1 486.3,311.5 491.5,314.1 491.5,311.5 486.3,306.2 478.4,302.3 470.5,304.9 467.9,299.7" fill="#161615"/>
<polygon points="199.8,298.3 189.3,299.7 178.7,304.9 174.8,303.6 172.2,304.9 172.2,311.5 181.4,308.9 195.8,307.5" fill="#161615"/>
<polygon points="249.7,266.8 226.1,277.3 226.1,281.3 236.6,277.3" fill="#161615"/>
<polygon points="406.1,264.2 407.4,266.8 433.7,279.9 436.3,278.6 436.3,277.3" fill="#161615"/>
<polygon points="364.1,249.7 364.1,257.6 369.3,265.5 394.3,272.1 395.6,264.2 389.0,258.9 385.1,252.3 374.6,245.8 375.9,243.1 368.0,245.8" fill="#161615"/>
<polygon points="295.7,244.5 289.1,241.8 287.8,243.1 289.1,245.8 282.6,249.7 277.3,256.3 265.5,265.5 268.1,270.7 272.1,272.1 285.2,266.8 291.8,266.8 295.7,262.9 299.7,255.0 299.7,249.7" fill="#161615"/>
<polygon points="310.2,186.6 304.9,186.6 304.9,198.5 307.5,199.8 306.2,210.3 302.3,212.9 301.0,218.2 294.4,230.0 298.3,227.4 303.6,230.0 302.3,232.6 304.9,232.6 308.9,214.2 312.8,203.7 312.8,189.3" fill="#161615"/>
<polygon points="353.5,185.3 350.9,191.9 350.9,199.8 353.5,201.1 356.2,220.8 360.1,235.3 362.7,237.9 366.7,236.6 366.7,233.9 364.1,231.3 364.1,226.1 356.2,206.3 357.5,186.6" fill="#161615"/>
<polygon points="491.5,859.5 491.5,863.5 494.2,866.1 496.8,874.0 499.4,875.3 498.1,877.9 499.4,879.3 504.7,877.9 504.7,872.7 502.1,872.7 498.1,868.7 499.4,860.9 498.1,859.5" fill="#2d2d2d"/>
<polygon points="473.1,807.0 481.0,835.9 485.0,838.5 487.6,847.7 490.2,847.7 490.2,839.8 485.0,833.3 486.3,829.3 479.7,820.1 477.1,809.6" fill="#2d2d2d"/>
<polygon points="596.7,767.5 592.7,768.9 591.4,771.5 595.4,784.6 592.7,785.9 594.1,800.4 591.4,801.7 592.7,804.3 591.4,821.4 587.5,833.3 591.4,829.3 594.1,804.3 596.7,796.5" fill="#2d2d2d"/>
<polygon points="600.6,743.9 594.1,746.5 595.4,751.8 594.1,761.0 596.7,764.9 598.0,764.9 599.3,757.0 601.9,754.4 601.9,745.2" fill="#2d2d2d"/>
<polygon points="594.1,701.8 591.4,701.8 594.1,704.5 591.4,705.8 591.4,730.7 592.7,730.7 592.7,724.2 595.4,722.9 595.4,716.3 592.7,713.7 592.7,711.0 594.1,709.7 596.7,711.0" fill="#2d2d2d"/>
<polygon points="428.5,640.1 433.7,653.2 433.7,657.1 439.0,655.8 436.3,644.0 432.4,642.7 431.1,640.1" fill="#2d2d2d"/>
<polygon points="592.7,617.7 594.1,637.4 596.7,638.7 595.4,633.5 599.3,628.2 599.3,623.0 596.7,617.7" fill="#2d2d2d"/>
<polygon points="425.8,580.9 425.8,595.4 427.1,596.7 425.8,615.1 428.5,623.0 431.1,623.0 432.4,611.1 428.5,608.5 431.1,607.2 431.1,600.6 427.1,587.5 427.1,580.9" fill="#2d2d2d"/>
<polygon points="140.6,559.9 138.0,559.9 136.7,573.0 131.4,587.5 134.1,587.5 136.7,582.2" fill="#2d2d2d"/>
<polygon points="550.7,532.3 552.0,536.2 550.7,544.1 553.3,546.7 562.5,544.1 559.9,541.5 557.3,533.6" fill="#2d2d2d"/>
<polygon points="102.5,532.3 99.9,536.2 99.9,540.2 103.8,541.5 105.1,545.4 109.1,542.8 109.1,538.9 106.5,537.5 109.1,536.2 109.1,533.6" fill="#2d2d2d"/>
<polygon points="481.0,445.5 481.0,458.7 483.7,465.3 482.3,469.2 485.0,475.8 485.0,481.0 488.9,492.9 490.2,492.9 491.5,487.6 487.6,478.4 485.0,466.6 485.0,457.4 482.3,452.1 482.3,445.5" fill="#2d2d2d"/>
<polygon points="178.7,435.0 177.4,435.0 176.1,454.7 172.2,473.1 169.5,478.4 169.5,485.0 172.2,485.0 176.1,469.2 176.1,461.3 178.7,452.1" fill="#2d2d2d"/>
<polygon points="126.2,431.1 120.9,431.1 114.3,435.0 115.7,439.0 111.7,441.6 111.7,444.2 117.0,442.9 122.2,449.5 119.6,452.1 107.8,452.1 107.8,456.1 115.7,457.4 124.9,449.5 126.2,444.2 123.5,441.6" fill="#2d2d2d"/>
<polygon points="111.7,356.2 101.2,366.7 101.2,370.6 109.1,371.9 109.1,365.4" fill="#2d2d2d"/>
<polygon points="519.1,333.8 515.2,337.8 524.4,352.2 527.0,350.9 532.3,361.4 533.6,361.4 533.6,357.5 529.7,353.5 529.7,347.0 523.1,333.8" fill="#2d2d2d"/>
<polygon points="118.3,324.6 113.0,325.9 109.1,333.8 111.7,337.8 110.4,341.7 105.1,345.7 103.8,353.5 110.4,352.2 110.4,348.3 114.3,341.7 111.7,339.1 113.0,337.8 111.7,335.1 113.0,331.2 118.3,327.3" fill="#2d2d2d"/>
<polygon points="531.0,320.7 536.2,325.9 540.2,333.8 546.7,337.8 546.7,340.4 544.1,343.0 548.1,349.6 546.7,353.5 549.4,360.1 549.4,368.0 550.7,371.9 553.3,373.3 553.3,375.9 555.9,375.9 555.9,356.2 553.3,354.9 554.6,347.0 552.0,339.1 549.4,339.1 545.4,333.8 546.7,332.5 545.4,324.6 537.5,324.6 536.2,325.9" fill="#2d2d2d"/>
<polygon points="473.1,315.4 477.1,320.7 482.3,320.7 485.0,323.3 482.3,327.3 486.3,331.2 517.8,350.9 512.6,340.4 504.7,329.9 506.0,327.3 509.9,331.2 512.6,328.6 515.2,329.9 512.6,327.3 516.5,325.9 512.6,319.4 509.9,320.7 507.3,319.4 506.0,314.1 502.1,311.5 503.4,314.1 500.7,319.4 495.5,318.1 494.2,320.7" fill="#2d2d2d"/>
<polygon points="174.8,314.1 166.9,315.4 157.7,322.0 156.4,320.7 166.9,310.2 164.3,307.5 163.0,310.2 156.4,311.5 143.3,324.6 130.1,347.0 124.9,366.7 126.2,366.7 128.8,357.5 135.4,345.7 145.9,332.5 145.9,329.9 153.8,322.0 156.4,323.3 151.1,328.6 143.3,343.0 139.3,354.9 148.5,347.0 169.5,333.8 180.1,324.6 180.1,322.0 173.5,320.7" fill="#2d2d2d"/>
<polygon points="244.5,262.9 240.5,262.9 239.2,266.8 233.9,270.7 230.0,269.4 235.3,264.2 231.3,264.2 222.1,273.4 226.1,276.0 239.2,269.4 240.5,265.5 244.5,264.2" fill="#2d2d2d"/>
<polygon points="289.1,226.1 285.2,228.7 283.9,232.6 262.9,247.1 260.2,253.7 255.0,252.3 249.7,255.0 251.0,260.2 248.4,261.5 248.4,264.2 258.9,260.2 264.2,255.0 270.7,255.0 278.6,251.0 279.9,248.4 277.3,247.1 282.6,245.8 293.1,236.6 290.5,233.9" fill="#2d2d2d"/>
<polygon points="364.1,219.5 365.4,224.7 371.9,235.3 377.2,237.9 377.2,243.1 382.5,245.8 386.4,252.3 436.3,276.0 441.6,274.7 441.6,272.1 439.0,269.4 435.0,269.4 433.7,272.1 431.1,272.1 421.9,266.8 423.2,264.2 427.1,265.5 425.8,261.5 407.4,253.7 406.1,251.0 391.7,243.1 385.1,236.6 379.8,239.2 377.2,236.6 379.8,233.9 379.8,231.3 373.3,224.7 370.6,218.2 366.7,216.9" fill="#2d2d2d"/>
<polygon points="301.0,203.7 297.0,205.0 297.0,209.0 290.5,220.8 291.8,224.7 295.7,223.4 299.7,215.5" fill="#2d2d2d"/>
<polygon points="360.1,190.6 360.1,202.4 362.7,209.0 361.4,214.2 364.1,215.5 365.4,205.0 362.7,199.8 362.7,190.6" fill="#2d2d2d"/>
<polygon points="170.9,872.7 168.2,879.3 168.2,897.7 173.5,899.0 176.1,896.3 180.1,896.3 178.7,889.8 173.5,884.5 172.2,872.7" fill="#212120"/>
<polygon points="69.7,726.8 67.0,726.8 63.1,730.7 63.1,739.9 69.7,737.3 71.0,733.4" fill="#212120"/>
<polygon points="72.3,680.8 68.3,680.8 67.0,686.1 65.7,722.9 68.3,722.9 68.3,716.3 69.7,715.0" fill="#212120"/>
<polygon points="542.8,557.3 542.8,559.9 546.7,561.2 555.9,561.2 559.9,558.6 559.9,555.9 555.9,552.0 549.4,552.0 546.7,555.9" fill="#212120"/>
<polygon points="124.9,465.3 122.2,465.3 118.3,473.1 113.0,478.4 109.1,491.5 105.1,498.1 105.1,502.1 106.5,502.1 110.4,491.5 124.9,467.9" fill="#212120"/>
<polygon points="189.3,312.8 186.6,310.2 177.4,311.5 176.1,316.7 178.7,318.1 177.4,320.7 184.0,320.7 187.9,316.7" fill="#212120"/>
<polygon points="332.5,235.3 329.9,237.9 328.6,249.7 325.9,252.3 325.9,262.9 329.9,281.3 332.5,281.3 332.5,274.7 335.1,268.1 335.1,257.6 336.5,256.3" fill="#212120"/>
<polygon points="339.1,874.0 348.3,916.1 350.9,916.1 344.3,895.0 340.4,874.0" fill="#969696"/>
<polygon points="207.7,683.4 198.5,690.0 185.3,717.6 173.5,750.5 151.1,845.1 145.9,879.3 143.3,885.8 144.6,892.4 147.2,892.4 148.5,888.5 151.1,860.9 157.7,834.6 159.0,821.4 166.9,793.8 168.2,782.0 170.9,776.7 170.9,771.5 174.8,761.0 176.1,751.8 185.3,725.5 195.8,704.5 195.8,701.8 201.1,693.9 201.1,691.3" fill="#969696"/>
<polygon points="432.4,675.5 435.0,678.2 446.9,682.1 457.4,691.3 477.1,738.6 477.1,742.6 483.7,761.0 485.0,772.8 498.1,825.4 498.1,831.9 507.3,874.0 508.6,892.4 512.6,891.1 512.6,885.8 509.9,877.9 509.9,870.1 506.0,856.9 504.7,843.8 500.7,831.9 500.7,825.4 483.7,757.0 483.7,751.8 475.8,726.8 460.0,690.0 452.1,683.4" fill="#969696"/>
<polygon points="224.7,638.7 218.2,642.7 206.3,676.9 209.0,676.9 220.8,644.0" fill="#969696"/>
<polygon points="429.8,636.1 429.8,637.4 437.7,641.4 449.5,674.2 453.4,678.2 453.4,674.2 448.2,663.7 441.6,642.7" fill="#969696"/>
<polygon points="431.1,587.5 431.1,592.7 435.0,605.9 435.0,620.3 433.7,621.7 433.7,632.2 435.0,632.2 436.3,603.3 433.7,596.7 432.4,587.5" fill="#969696"/>
<polygon points="144.6,587.5 143.3,587.5 143.3,617.7 135.4,644.0 126.2,661.1 130.1,657.1 143.3,626.9 145.9,613.8" fill="#969696"/>
<polygon points="516.5,573.0 516.5,582.2 513.9,591.4 513.9,617.7 519.1,638.7 531.0,662.4 534.9,666.3 523.1,644.0 516.5,623.0 515.2,595.4 516.5,594.1 516.5,583.5 519.1,580.9 517.8,573.0" fill="#969696"/>
<polygon points="231.3,562.5 230.0,562.5 230.0,580.9 223.4,604.6 223.4,621.7 226.1,630.9 227.4,630.9 227.4,626.9 226.1,625.6 226.1,613.8 224.7,612.5 226.1,611.1 226.1,600.6 231.3,580.9" fill="#969696"/>
<polygon points="84.1,524.4 82.8,524.4 63.1,554.6 55.2,571.7 48.6,595.4 47.3,636.1 51.3,655.8 53.9,696.6 55.2,696.6 53.9,646.6 51.3,645.3 49.9,638.7 49.9,600.6 51.3,599.3 51.3,592.7 59.1,566.5 61.8,563.8 68.3,549.4 81.5,531.0" fill="#969696"/>
<polygon points="571.7,515.2 573.0,524.4 577.0,528.3 598.0,563.8 605.9,586.2 608.5,599.3 608.5,613.8 609.8,615.1 608.5,637.4 607.2,638.7 607.2,645.3 604.6,646.6 601.9,684.7 600.6,686.1 600.6,736.0 603.3,738.6 601.9,736.0 601.9,691.3 603.3,690.0 603.3,678.2 604.6,676.9 605.9,661.1 609.8,645.3 609.8,633.5 611.1,632.2 609.8,595.4 600.6,565.1 591.4,548.1 574.3,521.8 574.3,516.5" fill="#969696"/>
<polygon points="110.4,419.3 107.8,420.6 97.3,437.7 89.4,457.4 88.1,470.5 86.7,471.8 88.1,499.4 89.4,499.4 88.1,474.5 92.0,456.1 95.9,445.5" fill="#969696"/>
<polygon points="548.1,417.9 563.8,446.9 570.4,470.5 570.4,494.2 569.1,495.5 569.1,502.1 570.4,502.1 571.7,495.5 571.7,465.3 569.1,454.7 558.6,431.1 550.7,419.3" fill="#969696"/>
<polygon points="471.8,282.6 471.8,283.9 494.2,285.2 507.3,289.1 523.1,297.0 542.8,315.4 554.6,337.8 559.9,360.1 559.9,375.9 554.6,402.2 555.9,402.2 561.2,383.8 562.5,360.1 561.2,358.8 561.2,349.6 555.9,332.5 546.7,315.4 531.0,298.3 515.2,289.1 494.2,282.6" fill="#969696"/>
<polygon points="189.3,282.6 168.2,282.6 155.1,285.2 141.9,290.5 128.8,298.3 111.7,316.7 101.2,336.5 95.9,360.1 97.3,387.7 103.8,407.4 105.1,406.1 101.2,395.6 99.9,381.1 98.6,379.8 98.6,364.1 102.5,343.0 113.0,320.7 131.4,301.0 143.3,293.1 166.9,285.2 189.3,283.9" fill="#969696"/>
<polygon points="386.4,161.7 381.1,169.5 379.8,224.7 378.5,227.4 389.0,237.9 398.2,244.5 437.7,265.5 461.3,283.9 467.9,286.5 450.8,270.7 439.0,262.9 398.2,241.8 383.8,231.3 381.1,199.8 383.8,195.8 383.8,189.3 385.1,187.9 385.1,177.4 387.7,161.7" fill="#969696"/>
<polygon points="276.0,161.7 274.7,161.7 274.7,164.3 276.0,165.6 277.3,189.3 281.3,201.1 278.6,231.3 255.0,247.1 252.3,247.1 220.8,264.2 207.7,273.4 191.9,287.8 198.5,285.2 223.4,265.5 261.5,245.8 273.4,237.9 282.6,228.7 281.3,226.1 282.6,195.8 281.3,194.5 281.3,174.8 279.9,173.5 281.3,170.9" fill="#969696"/>
<polygon points="264.2,60.5 256.3,67.0 251.0,74.9 251.0,77.5 253.7,76.2 256.3,77.5 252.3,86.7 251.0,95.9 253.7,97.3 253.7,107.8 257.6,113.0 257.6,117.0 261.5,126.2 262.9,126.2 260.2,110.4 256.3,107.8 257.6,92.0 255.0,90.7 255.0,85.4 258.9,74.9 256.3,76.2 255.0,73.6 264.2,63.1" fill="#969696"/>
<polygon points="393.0,48.6 394.3,51.3 391.7,53.9 399.5,60.5 407.4,73.6 406.1,76.2 403.5,74.9 407.4,90.7 407.4,99.9 403.5,101.2 403.5,111.7 399.5,123.5 400.9,124.9 404.8,109.1 408.7,105.1 407.4,81.5 408.7,80.2 411.4,82.8 412.7,81.5 410.1,77.5 408.7,71.0 399.5,59.1 400.9,56.5 403.5,57.8 404.8,56.5 400.9,52.6" fill="#969696"/>
<polygon points="282.6,42.1 266.8,51.3 264.2,51.3 262.9,53.9 266.8,53.9 268.1,57.8 269.4,57.8 270.7,55.2 268.1,53.9 281.3,46.0" fill="#969696"/>
<polygon points="347.0,893.7 350.9,904.2 353.5,916.1 358.8,917.4 357.5,910.8 348.3,893.7" fill="#373737"/>
<polygon points="485.0,846.4 486.3,853.0 488.9,854.3 490.2,858.2 496.8,858.2 492.9,847.7 487.6,849.0" fill="#373737"/>
<polygon points="172.2,838.5 166.9,838.5 155.1,866.1 153.8,875.3 151.1,876.6 151.1,889.8 155.1,885.8 160.3,867.4 163.0,866.1 164.3,871.4 165.6,871.4 168.2,866.1" fill="#373737"/>
<polygon points="55.2,757.0 55.2,762.3 57.8,767.5 57.8,801.7 56.5,804.3 57.8,805.7 57.8,812.2 59.1,812.2 59.1,774.1 60.5,772.8 60.5,766.2 56.5,762.3 59.1,761.0 57.8,757.0" fill="#373737"/>
<polygon points="211.6,688.7 206.3,688.7 203.7,691.3 199.8,699.2 201.1,701.8 197.1,704.5 190.6,720.2 190.6,724.2 187.9,725.5 186.6,736.0 187.9,736.0 187.9,733.4" fill="#373737"/>
<polygon points="65.7,687.4 64.4,687.4 63.1,697.9 60.5,704.5 57.8,724.2 60.5,724.2 63.1,720.2" fill="#373737"/>
<polygon points="445.5,686.1 465.3,722.9 469.2,734.7 473.1,737.3 470.5,734.7 470.5,728.1 462.6,708.4 457.4,700.5 457.4,696.6 454.7,693.9 454.7,691.3" fill="#373737"/>
<polygon points="596.7,633.5 598.0,637.4 596.7,647.9 600.6,649.3 600.6,654.5 598.0,655.8 598.0,672.9 600.6,672.9 599.3,663.7 601.9,657.1 601.9,638.7 599.3,636.1 599.3,632.2" fill="#373737"/>
<polygon points="65.7,615.1 63.1,615.1 63.1,620.3 59.1,623.0 57.8,640.1 56.5,641.4 57.8,683.4 59.1,683.4 60.5,649.3 61.8,647.9" fill="#373737"/>
<polygon points="235.3,603.3 228.7,603.3 228.7,609.8 227.4,611.1 228.7,625.6 231.3,623.0" fill="#373737"/>
<polygon points="562.5,462.6 566.5,478.4 566.5,491.5 565.1,494.2 567.8,496.8 567.8,470.5 565.1,462.6" fill="#373737"/>
<polygon points="106.5,432.4 105.1,432.4 105.1,435.0 97.3,448.2 97.3,452.1 92.0,466.6 93.3,474.5 94.6,474.5 94.6,467.9 98.6,458.7 99.9,448.2 103.8,442.9 102.5,440.3 105.1,439.0" fill="#373737"/>
<polygon points="552.0,431.1 553.3,437.7 559.9,450.8 561.2,458.7 563.8,457.4 562.5,450.8 553.3,431.1" fill="#373737"/>
<polygon points="127.5,415.3 120.9,420.6 117.0,431.1 123.5,428.5 123.5,425.8 127.5,420.6" fill="#373737"/>
<polygon points="523.1,398.2 536.2,428.5 541.5,448.2 548.1,456.1 548.1,460.0 550.7,463.9 553.3,463.9 552.0,452.1 549.4,449.5 549.4,444.2 542.8,428.5 538.9,425.8 538.9,421.9 533.6,411.4 525.7,399.5" fill="#373737"/>
<polygon points="496.8,289.1 500.7,294.4 503.4,294.4 515.2,301.0 517.8,298.3 519.1,301.0 524.4,302.3 513.9,294.4" fill="#373737"/>
<polygon points="423.2,531.0 414.0,536.2 415.3,540.2 411.4,545.4 411.4,552.0 402.2,574.3 403.5,574.3 408.7,563.8 408.7,561.2 423.2,533.6" fill="#db9e07"/>
<polygon points="469.2,410.1 462.6,412.7 462.6,416.6 452.1,433.7 429.8,454.7 431.1,456.1 445.5,446.9 462.6,429.8 465.3,431.1 458.7,450.8 446.9,466.6 448.2,467.9 457.4,458.7 458.7,460.0 448.2,487.6 440.3,499.4 412.7,525.7 411.4,523.1 417.9,508.6 417.9,506.0 416.6,506.0 398.2,537.5 387.7,562.5 395.6,552.0 404.8,542.8 411.4,538.9 410.1,536.2 435.0,513.9 454.7,485.0 463.9,462.6 470.5,436.3 471.8,416.6 469.2,417.9 465.3,424.5 463.9,423.2" fill="#db9e07"/>
<polygon points="189.3,407.4 194.5,419.3 193.2,421.9 187.9,415.3 189.3,437.7 193.2,454.7 205.0,485.0 219.5,507.3 243.1,531.0 236.6,532.3 247.1,550.7 253.7,567.8 255.0,566.5 252.3,562.5 247.1,540.2 241.8,532.3 243.1,531.0 266.8,553.3 273.4,563.8 257.6,529.7 241.8,503.4 240.5,504.7 248.4,523.1 247.1,525.7 220.8,502.1 210.3,486.3 201.1,462.6 201.1,457.4 202.4,456.1 207.7,462.6 209.0,461.3 199.8,448.2 195.8,432.4 197.1,431.1 215.5,448.2 227.4,456.1 228.7,454.7 205.0,431.1 194.5,410.1" fill="#db9e07"/>
<polygon points="487.6,373.3 483.7,371.9 482.3,377.2 465.3,393.0 458.7,396.9 449.5,399.5 431.1,399.5 424.5,396.9 414.0,385.1 412.7,378.5 407.4,382.5 406.1,386.4 410.1,395.6 423.2,408.7 448.2,412.7 457.4,410.1 466.6,404.8 475.8,395.6" fill="#db9e07"/>
<polygon points="172.2,373.3 180.1,389.0 190.6,402.2 203.7,410.1 212.9,412.7 222.1,412.7 239.2,408.7 251.0,396.9 256.3,386.4 256.3,383.8 251.0,378.5 249.7,385.1 239.2,396.9 232.6,399.5 222.1,399.5 220.8,400.9 219.5,399.5 210.3,399.5 202.4,396.9 189.3,387.7 177.4,375.9 176.1,371.9" fill="#db9e07"/>
</svg>